<mxfile host="app.diagrams.net" modified="2024-04-03T04:13:31.267Z" agent="Mozilla/5.0 (Windows NT 10.0; Win64; x64) AppleWebKit/537.36 (KHTML, like Gecko) Chrome/123.0.0.0 Safari/537.36 Edg/123.0.0.0" etag="zKz3tUN4sm8Dr3c2SHmu" version="24.2.1" type="device">
  <diagram id="nuOTd-SOsQSNcgzXAuFn" name="Exemplo de funcionamento">
    <mxGraphModel dx="1042" dy="535" grid="1" gridSize="10" guides="1" tooltips="1" connect="1" arrows="1" fold="1" page="1" pageScale="1" pageWidth="827" pageHeight="1169" math="0" shadow="0">
      <root>
        <mxCell id="0" />
        <mxCell id="1" parent="0" />
        <mxCell id="VREdjMdjdWwO__A2VScL-5" style="edgeStyle=orthogonalEdgeStyle;rounded=0;orthogonalLoop=1;jettySize=auto;html=1;exitX=1;exitY=0.25;exitDx=0;exitDy=0;entryX=0;entryY=0.25;entryDx=0;entryDy=0;" edge="1" parent="1" source="VREdjMdjdWwO__A2VScL-1" target="VREdjMdjdWwO__A2VScL-2">
          <mxGeometry relative="1" as="geometry">
            <Array as="points">
              <mxPoint x="530" y="325" />
              <mxPoint x="530" y="325" />
            </Array>
          </mxGeometry>
        </mxCell>
        <mxCell id="VREdjMdjdWwO__A2VScL-1" value="Api A" style="rounded=0;whiteSpace=wrap;html=1;" vertex="1" parent="1">
          <mxGeometry x="80" y="300" width="140" height="100" as="geometry" />
        </mxCell>
        <mxCell id="VREdjMdjdWwO__A2VScL-17" style="edgeStyle=orthogonalEdgeStyle;rounded=0;orthogonalLoop=1;jettySize=auto;html=1;exitX=0;exitY=0.75;exitDx=0;exitDy=0;entryX=1;entryY=0.5;entryDx=0;entryDy=0;" edge="1" parent="1" source="VREdjMdjdWwO__A2VScL-2" target="VREdjMdjdWwO__A2VScL-7">
          <mxGeometry relative="1" as="geometry" />
        </mxCell>
        <mxCell id="6aJzSq2lcFDBt0fWxkFI-8" style="edgeStyle=orthogonalEdgeStyle;rounded=0;orthogonalLoop=1;jettySize=auto;html=1;exitX=0.75;exitY=1;exitDx=0;exitDy=0;entryX=0;entryY=0.5;entryDx=0;entryDy=0;" edge="1" parent="1" source="VREdjMdjdWwO__A2VScL-2" target="VREdjMdjdWwO__A2VScL-21">
          <mxGeometry relative="1" as="geometry">
            <Array as="points">
              <mxPoint x="773" y="560" />
            </Array>
          </mxGeometry>
        </mxCell>
        <mxCell id="VREdjMdjdWwO__A2VScL-2" value="Api B" style="rounded=0;whiteSpace=wrap;html=1;" vertex="1" parent="1">
          <mxGeometry x="660" y="300" width="150" height="100" as="geometry" />
        </mxCell>
        <mxCell id="VREdjMdjdWwO__A2VScL-4" value="Requisição" style="text;html=1;align=center;verticalAlign=middle;resizable=0;points=[];autosize=1;strokeColor=none;fillColor=none;" vertex="1" parent="1">
          <mxGeometry x="340" y="290" width="80" height="30" as="geometry" />
        </mxCell>
        <mxCell id="VREdjMdjdWwO__A2VScL-9" style="edgeStyle=orthogonalEdgeStyle;rounded=0;orthogonalLoop=1;jettySize=auto;html=1;exitX=0;exitY=0.5;exitDx=0;exitDy=0;entryX=0.5;entryY=1;entryDx=0;entryDy=0;" edge="1" parent="1" source="VREdjMdjdWwO__A2VScL-7" target="VREdjMdjdWwO__A2VScL-1">
          <mxGeometry relative="1" as="geometry">
            <Array as="points">
              <mxPoint x="150" y="420" />
            </Array>
          </mxGeometry>
        </mxCell>
        <mxCell id="VREdjMdjdWwO__A2VScL-12" value="" style="edgeStyle=orthogonalEdgeStyle;rounded=0;orthogonalLoop=1;jettySize=auto;html=1;" edge="1" parent="1" source="VREdjMdjdWwO__A2VScL-7" target="VREdjMdjdWwO__A2VScL-11">
          <mxGeometry relative="1" as="geometry" />
        </mxCell>
        <mxCell id="VREdjMdjdWwO__A2VScL-7" value="resposta com&lt;div&gt;sucesso&lt;/div&gt;" style="rhombus;whiteSpace=wrap;html=1;" vertex="1" parent="1">
          <mxGeometry x="350" y="340" width="150" height="160" as="geometry" />
        </mxCell>
        <mxCell id="VREdjMdjdWwO__A2VScL-10" value="Sim" style="text;html=1;align=center;verticalAlign=middle;resizable=0;points=[];autosize=1;strokeColor=none;fillColor=none;" vertex="1" parent="1">
          <mxGeometry x="240" y="398" width="40" height="30" as="geometry" />
        </mxCell>
        <mxCell id="6aJzSq2lcFDBt0fWxkFI-2" value="" style="edgeStyle=orthogonalEdgeStyle;rounded=0;orthogonalLoop=1;jettySize=auto;html=1;" edge="1" parent="1" source="VREdjMdjdWwO__A2VScL-11" target="6aJzSq2lcFDBt0fWxkFI-1">
          <mxGeometry relative="1" as="geometry" />
        </mxCell>
        <mxCell id="VREdjMdjdWwO__A2VScL-11" value="CB Open" style="ellipse;whiteSpace=wrap;html=1;" vertex="1" parent="1">
          <mxGeometry x="375" y="680" width="100" height="100" as="geometry" />
        </mxCell>
        <mxCell id="VREdjMdjdWwO__A2VScL-13" value="Não" style="text;html=1;align=center;verticalAlign=middle;resizable=0;points=[];autosize=1;strokeColor=none;fillColor=none;" vertex="1" parent="1">
          <mxGeometry x="375" y="548" width="50" height="30" as="geometry" />
        </mxCell>
        <mxCell id="6aJzSq2lcFDBt0fWxkFI-17" style="edgeStyle=orthogonalEdgeStyle;rounded=0;orthogonalLoop=1;jettySize=auto;html=1;exitX=0.5;exitY=0;exitDx=0;exitDy=0;entryX=0.25;entryY=1;entryDx=0;entryDy=0;" edge="1" parent="1" source="VREdjMdjdWwO__A2VScL-14" target="VREdjMdjdWwO__A2VScL-2">
          <mxGeometry relative="1" as="geometry" />
        </mxCell>
        <mxCell id="VREdjMdjdWwO__A2VScL-14" value="CB Half Open" style="ellipse;whiteSpace=wrap;html=1;" vertex="1" parent="1">
          <mxGeometry x="648" y="690" width="100" height="100" as="geometry" />
        </mxCell>
        <mxCell id="VREdjMdjdWwO__A2VScL-16" value="Após um tempo determinado&amp;nbsp;&lt;div&gt;pelo desenvolvedor&lt;/div&gt;" style="text;html=1;align=center;verticalAlign=middle;resizable=0;points=[];autosize=1;strokeColor=none;fillColor=none;" vertex="1" parent="1">
          <mxGeometry x="510" y="870" width="180" height="40" as="geometry" />
        </mxCell>
        <mxCell id="VREdjMdjdWwO__A2VScL-19" value="Requisição" style="text;html=1;align=center;verticalAlign=middle;resizable=0;points=[];autosize=1;strokeColor=none;fillColor=none;" vertex="1" parent="1">
          <mxGeometry x="620" y="610" width="80" height="30" as="geometry" />
        </mxCell>
        <mxCell id="VREdjMdjdWwO__A2VScL-24" value="" style="edgeStyle=orthogonalEdgeStyle;rounded=0;orthogonalLoop=1;jettySize=auto;html=1;" edge="1" parent="1" source="VREdjMdjdWwO__A2VScL-21" target="VREdjMdjdWwO__A2VScL-23">
          <mxGeometry relative="1" as="geometry" />
        </mxCell>
        <mxCell id="VREdjMdjdWwO__A2VScL-21" value="resposta com&lt;div&gt;sucesso&lt;/div&gt;" style="rhombus;whiteSpace=wrap;html=1;" vertex="1" parent="1">
          <mxGeometry x="800" y="480" width="150" height="160" as="geometry" />
        </mxCell>
        <mxCell id="6aJzSq2lcFDBt0fWxkFI-13" value="" style="edgeStyle=orthogonalEdgeStyle;rounded=0;orthogonalLoop=1;jettySize=auto;html=1;" edge="1" parent="1" source="VREdjMdjdWwO__A2VScL-23" target="6aJzSq2lcFDBt0fWxkFI-12">
          <mxGeometry relative="1" as="geometry" />
        </mxCell>
        <mxCell id="VREdjMdjdWwO__A2VScL-23" value="CB Closed" style="ellipse;whiteSpace=wrap;html=1;" vertex="1" parent="1">
          <mxGeometry x="1050" y="520" width="80" height="80" as="geometry" />
        </mxCell>
        <mxCell id="6aJzSq2lcFDBt0fWxkFI-15" value="" style="edgeStyle=orthogonalEdgeStyle;rounded=0;orthogonalLoop=1;jettySize=auto;html=1;" edge="1" parent="1" source="6aJzSq2lcFDBt0fWxkFI-1" target="6aJzSq2lcFDBt0fWxkFI-14">
          <mxGeometry relative="1" as="geometry" />
        </mxCell>
        <mxCell id="6aJzSq2lcFDBt0fWxkFI-16" style="edgeStyle=orthogonalEdgeStyle;rounded=0;orthogonalLoop=1;jettySize=auto;html=1;exitX=1;exitY=0.75;exitDx=0;exitDy=0;entryX=0.5;entryY=1;entryDx=0;entryDy=0;" edge="1" parent="1" source="6aJzSq2lcFDBt0fWxkFI-1" target="VREdjMdjdWwO__A2VScL-14">
          <mxGeometry relative="1" as="geometry" />
        </mxCell>
        <mxCell id="6aJzSq2lcFDBt0fWxkFI-1" value="Barra as requisições para a API B" style="whiteSpace=wrap;html=1;" vertex="1" parent="1">
          <mxGeometry x="365" y="880" width="120" height="60" as="geometry" />
        </mxCell>
        <mxCell id="6aJzSq2lcFDBt0fWxkFI-9" value="Sim" style="text;html=1;align=center;verticalAlign=middle;resizable=0;points=[];autosize=1;strokeColor=none;fillColor=none;" vertex="1" parent="1">
          <mxGeometry x="940" y="538" width="40" height="30" as="geometry" />
        </mxCell>
        <mxCell id="6aJzSq2lcFDBt0fWxkFI-10" style="edgeStyle=orthogonalEdgeStyle;rounded=0;orthogonalLoop=1;jettySize=auto;html=1;entryX=-0.042;entryY=0.572;entryDx=0;entryDy=0;entryPerimeter=0;exitX=0.5;exitY=1;exitDx=0;exitDy=0;" edge="1" parent="1" source="VREdjMdjdWwO__A2VScL-21" target="VREdjMdjdWwO__A2VScL-11">
          <mxGeometry relative="1" as="geometry">
            <mxPoint x="1090" y="630" as="sourcePoint" />
            <Array as="points">
              <mxPoint x="875" y="1130" />
              <mxPoint x="280" y="1130" />
              <mxPoint x="280" y="737" />
            </Array>
          </mxGeometry>
        </mxCell>
        <mxCell id="6aJzSq2lcFDBt0fWxkFI-11" value="Não" style="text;html=1;align=center;verticalAlign=middle;resizable=0;points=[];autosize=1;strokeColor=none;fillColor=none;" vertex="1" parent="1">
          <mxGeometry x="860" y="820" width="50" height="30" as="geometry" />
        </mxCell>
        <mxCell id="6aJzSq2lcFDBt0fWxkFI-12" value="API B voltou a responder com sucesso" style="whiteSpace=wrap;html=1;" vertex="1" parent="1">
          <mxGeometry x="1190" y="530" width="120" height="60" as="geometry" />
        </mxCell>
        <mxCell id="6aJzSq2lcFDBt0fWxkFI-14" value="Dispara uma fallback" style="whiteSpace=wrap;html=1;" vertex="1" parent="1">
          <mxGeometry x="365" y="1040" width="120" height="60" as="geometry" />
        </mxCell>
      </root>
    </mxGraphModel>
  </diagram>
</mxfile>
